# xmcd
#
# Track frame offsets: 
#        150
#        13155
#        30237
#        46292
#        63376
#        82352
#        95143
#        110034
#        125942
#        139403
#
# Disc length: 2013 seconds
#
# Revision: 0
# Processed by: cddbd v1.5.2PL0 Copyright (c) Steve Scherf et al.
# Submitted via: ExactAudioCopy v0.99pb4
#
DISCID=9707db0a
DTITLE=Shenandoah - All American Country
DYEAR=2003
DGENRE=Country
TTITLE0=If Bubba Can Dance (I Can Too)
TTITLE1=I Want To Be Loved Like That
TTITLE2=Hey Mister (I Need This Job)
TTITLE3=Wednesday Night Prayer Meetin'
TTITLE4=Under The Kudzu
TTITLE5=Rattle The Windows
TTITLE6=Janie Baker's Love Slave
TTITLE7=There Ain't No Beverly Hills In Tennessee
TTITLE8=Give Me Five Minutes
TTITLE9=The Blues Are Coming Over To Your House
EXTD=
EXTT0=
EXTT1=
EXTT2=
EXTT3=
EXTT4=
EXTT5=
EXTT6=
EXTT7=
EXTT8=
EXTT9=
PLAYORDER=
